<?xml version="1.0" encoding="UTF-8" standalone="no"?>
<!DOCTYPE svg PUBLIC "-//W3C//DTD SVG 1.1//EN"
 "http://www.w3.org/Graphics/SVG/1.1/DTD/svg11.dtd">
<!-- Generated by graphviz version 2.50.0 (20211204.2007)
 -->
<!-- Title: g Pages: 1 -->
<svg width="595pt" height="392pt"
 viewBox="0.00 0.00 595.39 392.00" xmlns="http://www.w3.org/2000/svg" xmlns:xlink="http://www.w3.org/1999/xlink">
<g id="graph0" class="graph" transform="scale(1 1) rotate(0) translate(4 388)">
<title>g</title>
<polygon fill="white" stroke="transparent" points="-4,4 -4,-388 591.39,-388 591.39,4 -4,4"/>
<!-- 1 -->
<g id="node1" class="node">
<title>1</title>
<ellipse fill="none" stroke="black" cx="305.7" cy="-366" rx="37.89" ry="18"/>
<text text-anchor="middle" x="305.7" y="-362.3" font-family="Times New Roman,serif" font-size="14.00">num : 6</text>
</g>
<!-- Intital -->
<g id="node2" class="node">
<title>Intital</title>
<ellipse fill="none" stroke="black" cx="231.7" cy="-279" rx="30.59" ry="18"/>
<text text-anchor="middle" x="231.7" y="-275.3" font-family="Times New Roman,serif" font-size="14.00">Intital</text>
</g>
<!-- 1&#45;&gt;Intital -->
<g id="edge30" class="edge">
<title>1&#45;&gt;Intital</title>
<path fill="none" stroke="black" stroke-dasharray="1,5" d="M280.95,-352.31C271.48,-346.51 261.17,-338.93 253.7,-330 247.99,-323.17 243.51,-314.63 240.12,-306.55"/>
<polygon fill="black" stroke="black" points="243.35,-305.18 236.53,-297.07 236.8,-307.66 243.35,-305.18"/>
<text text-anchor="middle" x="257.2" y="-318.8" font-family="Times New Roman,serif" font-size="14.00">8</text>
</g>
<!-- 2 -->
<g id="node3" class="node">
<title>2</title>
<ellipse fill="none" stroke="black" cx="317.7" cy="-279" rx="37.89" ry="18"/>
<text text-anchor="middle" x="317.7" y="-275.3" font-family="Times New Roman,serif" font-size="14.00">num : 5</text>
</g>
<!-- 1&#45;&gt;2 -->
<g id="edge2" class="edge">
<title>1&#45;&gt;2</title>
<path fill="none" stroke="black" d="M303.07,-347.73C302.08,-338.03 301.63,-325.75 303.7,-315 304.25,-312.11 305.05,-309.15 305.98,-306.24"/>
<polygon fill="black" stroke="black" points="309.32,-307.29 309.52,-296.7 302.76,-304.85 309.32,-307.29"/>
</g>
<!-- 11 -->
<g id="node12" class="node">
<title>11</title>
<ellipse fill="none" stroke="black" cx="446.7" cy="-279" rx="37.89" ry="18"/>
<text text-anchor="middle" x="446.7" y="-275.3" font-family="Times New Roman,serif" font-size="14.00">num : 4</text>
</g>
<!-- 1&#45;&gt;11 -->
<g id="edge20" class="edge">
<title>1&#45;&gt;11</title>
<path fill="none" stroke="black" d="M326.99,-350.84C342.54,-340.62 364.23,-326.63 383.7,-315 393.3,-309.26 403.88,-303.26 413.59,-297.88"/>
<polygon fill="black" stroke="black" points="415.49,-300.83 422.56,-292.94 412.11,-294.7 415.49,-300.83"/>
</g>
<!-- Intital&#45;&gt;1 -->
<g id="edge1" class="edge">
<title>Intital&#45;&gt;1</title>
<path fill="none" stroke="black" d="M245.05,-295.34C256.2,-308.14 272.26,-326.59 285.06,-341.29"/>
<polygon fill="black" stroke="black" points="282.57,-343.77 291.78,-349.01 287.85,-339.17 282.57,-343.77"/>
</g>
<!-- 2&#45;&gt;1 -->
<g id="edge19" class="edge">
<title>2&#45;&gt;1</title>
<path fill="none" stroke="black" stroke-dasharray="1,5" d="M315.27,-297.18C313.63,-308.81 311.43,-324.42 309.55,-337.73"/>
<polygon fill="black" stroke="black" points="306.06,-337.41 308.13,-347.8 312.99,-338.39 306.06,-337.41"/>
<text text-anchor="middle" x="315.2" y="-318.8" font-family="Times New Roman,serif" font-size="14.00">5</text>
</g>
<!-- 3 -->
<g id="node4" class="node">
<title>3</title>
<ellipse fill="none" stroke="black" cx="189.7" cy="-192" rx="37.89" ry="18"/>
<text text-anchor="middle" x="189.7" y="-188.3" font-family="Times New Roman,serif" font-size="14.00">num : 4</text>
</g>
<!-- 2&#45;&gt;3 -->
<g id="edge3" class="edge">
<title>2&#45;&gt;3</title>
<path fill="none" stroke="black" d="M288.81,-267.24C261.76,-257.15 225.38,-243.53 224.7,-243 216.25,-236.44 209.02,-227.28 203.36,-218.59"/>
<polygon fill="black" stroke="black" points="206.23,-216.57 198.05,-209.84 200.25,-220.2 206.23,-216.57"/>
</g>
<!-- 8 -->
<g id="node9" class="node">
<title>8</title>
<ellipse fill="none" stroke="black" cx="317.7" cy="-192" rx="37.89" ry="18"/>
<text text-anchor="middle" x="317.7" y="-188.3" font-family="Times New Roman,serif" font-size="14.00">num : 3</text>
</g>
<!-- 2&#45;&gt;8 -->
<g id="edge13" class="edge">
<title>2&#45;&gt;8</title>
<path fill="none" stroke="black" d="M315.94,-260.93C315.43,-255.23 314.95,-248.85 314.7,-243 314.38,-235.64 314.6,-227.69 315.04,-220.33"/>
<polygon fill="black" stroke="black" points="318.55,-220.35 315.8,-210.12 311.57,-219.83 318.55,-220.35"/>
</g>
<!-- 3&#45;&gt;2 -->
<g id="edge12" class="edge">
<title>3&#45;&gt;2</title>
<path fill="none" stroke="black" stroke-dasharray="1,5" d="M210.86,-207.06C231.91,-221.03 264.36,-242.58 287.98,-258.27"/>
<polygon fill="black" stroke="black" points="286.29,-261.35 296.56,-263.96 290.17,-255.52 286.29,-261.35"/>
<text text-anchor="middle" x="265.2" y="-231.8" font-family="Times New Roman,serif" font-size="14.00">3</text>
</g>
<!-- 4 -->
<g id="node5" class="node">
<title>4</title>
<ellipse fill="none" stroke="black" cx="84.7" cy="-105" rx="37.89" ry="18"/>
<text text-anchor="middle" x="84.7" y="-101.3" font-family="Times New Roman,serif" font-size="14.00">num : 3</text>
</g>
<!-- 3&#45;&gt;4 -->
<g id="edge4" class="edge">
<title>3&#45;&gt;4</title>
<path fill="none" stroke="black" d="M157.51,-182.61C141.6,-177.14 123,-168.63 109.7,-156 102.92,-149.56 97.7,-140.89 93.83,-132.58"/>
<polygon fill="black" stroke="black" points="96.98,-131.02 89.89,-123.14 90.52,-133.72 96.98,-131.02"/>
</g>
<!-- 7 -->
<g id="node8" class="node">
<title>7</title>
<ellipse fill="none" stroke="black" cx="177.7" cy="-105" rx="37.89" ry="18"/>
<text text-anchor="middle" x="177.7" y="-101.3" font-family="Times New Roman,serif" font-size="14.00">num : 2</text>
</g>
<!-- 3&#45;&gt;7 -->
<g id="edge10" class="edge">
<title>3&#45;&gt;7</title>
<path fill="none" stroke="black" d="M187.27,-173.8C185.63,-162.16 183.42,-146.55 181.54,-133.24"/>
<polygon fill="black" stroke="black" points="184.99,-132.59 180.12,-123.18 178.05,-133.57 184.99,-132.59"/>
</g>
<!-- 4&#45;&gt;3 -->
<g id="edge9" class="edge">
<title>4&#45;&gt;3</title>
<path fill="none" stroke="black" stroke-dasharray="1,5" d="M103.13,-120.92C119.86,-134.47 144.72,-154.59 163.51,-169.8"/>
<polygon fill="black" stroke="black" points="161.43,-172.62 171.41,-176.19 165.84,-167.18 161.43,-172.62"/>
<text text-anchor="middle" x="147.2" y="-144.8" font-family="Times New Roman,serif" font-size="14.00">2</text>
</g>
<!-- 5 -->
<g id="node6" class="node">
<title>5</title>
<ellipse fill="none" stroke="black" cx="37.7" cy="-18" rx="37.89" ry="18"/>
<text text-anchor="middle" x="37.7" y="-14.3" font-family="Times New Roman,serif" font-size="14.00">num : 2</text>
</g>
<!-- 4&#45;&gt;5 -->
<g id="edge5" class="edge">
<title>4&#45;&gt;5</title>
<path fill="none" stroke="black" d="M68.66,-88.71C63.32,-82.94 57.71,-76.06 53.7,-69 49.62,-61.84 46.43,-53.5 44.01,-45.71"/>
<polygon fill="black" stroke="black" points="47.33,-44.61 41.25,-35.93 40.59,-46.5 47.33,-44.61"/>
</g>
<!-- 6 -->
<g id="node7" class="node">
<title>6</title>
<ellipse fill="none" stroke="black" cx="130.7" cy="-18" rx="37.89" ry="18"/>
<text text-anchor="middle" x="130.7" y="-14.3" font-family="Times New Roman,serif" font-size="14.00">num : 1</text>
</g>
<!-- 4&#45;&gt;6 -->
<g id="edge7" class="edge">
<title>4&#45;&gt;6</title>
<path fill="none" stroke="black" d="M93.2,-87.25C98.2,-77.49 104.7,-64.99 110.7,-54 112.39,-50.9 114.19,-47.65 116,-44.45"/>
<polygon fill="black" stroke="black" points="119.1,-46.08 121,-35.66 113.01,-42.62 119.1,-46.08"/>
</g>
<!-- 5&#45;&gt;4 -->
<g id="edge6" class="edge">
<title>5&#45;&gt;4</title>
<path fill="none" stroke="black" stroke-dasharray="1,5" d="M46.8,-35.47C53.5,-47.57 62.72,-64.26 70.4,-78.14"/>
<polygon fill="black" stroke="black" points="67.51,-80.15 75.41,-87.21 73.63,-76.76 67.51,-80.15"/>
<text text-anchor="middle" x="68.2" y="-57.8" font-family="Times New Roman,serif" font-size="14.00">1</text>
</g>
<!-- 6&#45;&gt;4 -->
<g id="edge8" class="edge">
<title>6&#45;&gt;4</title>
<path fill="none" stroke="black" stroke-dasharray="1,5" d="M123.64,-35.98C119.38,-45.8 113.63,-58.3 107.7,-69 105.86,-72.31 103.82,-75.72 101.74,-79.06"/>
<polygon fill="black" stroke="black" points="98.71,-77.28 96.22,-87.58 104.59,-81.09 98.71,-77.28"/>
<text text-anchor="middle" x="119.2" y="-57.8" font-family="Times New Roman,serif" font-size="14.00">1</text>
</g>
<!-- 7&#45;&gt;3 -->
<g id="edge11" class="edge">
<title>7&#45;&gt;3</title>
<path fill="none" stroke="black" stroke-dasharray="1,5" d="M180.8,-123.06C181.79,-128.76 182.84,-135.14 183.7,-141 184.78,-148.41 185.8,-156.46 186.7,-163.89"/>
<polygon fill="black" stroke="black" points="183.22,-164.32 187.85,-173.85 190.17,-163.51 183.22,-164.32"/>
<text text-anchor="middle" x="189.2" y="-144.8" font-family="Times New Roman,serif" font-size="14.00">1</text>
</g>
<!-- 8&#45;&gt;2 -->
<g id="edge18" class="edge">
<title>8&#45;&gt;2</title>
<path fill="none" stroke="black" stroke-dasharray="1,5" d="M317.7,-210.18C317.7,-221.81 317.7,-237.42 317.7,-250.73"/>
<polygon fill="black" stroke="black" points="314.2,-250.8 317.7,-260.8 321.2,-250.8 314.2,-250.8"/>
<text text-anchor="middle" x="321.2" y="-231.8" font-family="Times New Roman,serif" font-size="14.00">2</text>
</g>
<!-- 9 -->
<g id="node10" class="node">
<title>9</title>
<ellipse fill="none" stroke="black" cx="270.7" cy="-105" rx="37.89" ry="18"/>
<text text-anchor="middle" x="270.7" y="-101.3" font-family="Times New Roman,serif" font-size="14.00">num : 2</text>
</g>
<!-- 8&#45;&gt;9 -->
<g id="edge14" class="edge">
<title>8&#45;&gt;9</title>
<path fill="none" stroke="black" d="M301.06,-175.83C295.53,-170.07 289.76,-163.16 285.7,-156 281.65,-148.87 278.6,-140.55 276.33,-132.76"/>
<polygon fill="black" stroke="black" points="279.69,-131.77 273.8,-122.97 272.92,-133.53 279.69,-131.77"/>
</g>
<!-- 10 -->
<g id="node11" class="node">
<title>10</title>
<ellipse fill="none" stroke="black" cx="363.7" cy="-105" rx="37.89" ry="18"/>
<text text-anchor="middle" x="363.7" y="-101.3" font-family="Times New Roman,serif" font-size="14.00">num : 1</text>
</g>
<!-- 8&#45;&gt;10 -->
<g id="edge16" class="edge">
<title>8&#45;&gt;10</title>
<path fill="none" stroke="black" d="M326.2,-174.25C331.2,-164.49 337.7,-151.99 343.7,-141 345.39,-137.9 347.19,-134.65 349,-131.45"/>
<polygon fill="black" stroke="black" points="352.1,-133.08 354,-122.66 346.01,-129.62 352.1,-133.08"/>
</g>
<!-- 9&#45;&gt;8 -->
<g id="edge15" class="edge">
<title>9&#45;&gt;8</title>
<path fill="none" stroke="black" stroke-dasharray="1,5" d="M279.8,-122.47C286.5,-134.57 295.72,-151.26 303.4,-165.14"/>
<polygon fill="black" stroke="black" points="300.51,-167.15 308.41,-174.21 306.63,-163.76 300.51,-167.15"/>
<text text-anchor="middle" x="300.2" y="-144.8" font-family="Times New Roman,serif" font-size="14.00">1</text>
</g>
<!-- 10&#45;&gt;8 -->
<g id="edge17" class="edge">
<title>10&#45;&gt;8</title>
<path fill="none" stroke="black" stroke-dasharray="1,5" d="M356.64,-122.98C352.38,-132.8 346.63,-145.3 340.7,-156 338.86,-159.31 336.82,-162.72 334.74,-166.06"/>
<polygon fill="black" stroke="black" points="331.71,-164.28 329.22,-174.58 337.59,-168.09 331.71,-164.28"/>
<text text-anchor="middle" x="351.2" y="-144.8" font-family="Times New Roman,serif" font-size="14.00">1</text>
</g>
<!-- 11&#45;&gt;1 -->
<g id="edge29" class="edge">
<title>11&#45;&gt;1</title>
<path fill="none" stroke="black" stroke-dasharray="1,5" d="M429.9,-295.24C417.68,-305.84 400.4,-319.84 383.7,-330 371.14,-337.63 356.64,-344.59 343.57,-350.26"/>
<polygon fill="black" stroke="black" points="342.2,-347.04 334.35,-354.16 344.92,-353.49 342.2,-347.04"/>
<text text-anchor="middle" x="408.2" y="-318.8" font-family="Times New Roman,serif" font-size="14.00">3</text>
</g>
<!-- 12 -->
<g id="node13" class="node">
<title>12</title>
<ellipse fill="none" stroke="black" cx="455.7" cy="-192" rx="37.89" ry="18"/>
<text text-anchor="middle" x="455.7" y="-188.3" font-family="Times New Roman,serif" font-size="14.00">num : 3</text>
</g>
<!-- 11&#45;&gt;12 -->
<g id="edge21" class="edge">
<title>11&#45;&gt;12</title>
<path fill="none" stroke="black" d="M442.53,-260.76C440.8,-251.07 439.62,-238.79 441.7,-228 442.25,-225.11 443.05,-222.15 443.98,-219.24"/>
<polygon fill="black" stroke="black" points="447.32,-220.29 447.52,-209.7 440.76,-217.85 447.32,-220.29"/>
</g>
<!-- 15 -->
<g id="node16" class="node">
<title>15</title>
<ellipse fill="none" stroke="black" cx="548.7" cy="-192" rx="37.89" ry="18"/>
<text text-anchor="middle" x="548.7" y="-188.3" font-family="Times New Roman,serif" font-size="14.00">num : 2</text>
</g>
<!-- 11&#45;&gt;15 -->
<g id="edge27" class="edge">
<title>11&#45;&gt;15</title>
<path fill="none" stroke="black" d="M464.93,-262.8C481.03,-249.39 504.69,-229.67 522.76,-214.62"/>
<polygon fill="black" stroke="black" points="525.18,-217.16 530.62,-208.06 520.7,-211.78 525.18,-217.16"/>
</g>
<!-- 12&#45;&gt;11 -->
<g id="edge26" class="edge">
<title>12&#45;&gt;11</title>
<path fill="none" stroke="black" stroke-dasharray="1,5" d="M453.88,-210.18C452.65,-221.81 450.99,-237.42 449.58,-250.73"/>
<polygon fill="black" stroke="black" points="446.09,-250.49 448.52,-260.8 453.05,-251.22 446.09,-250.49"/>
<text text-anchor="middle" x="455.2" y="-231.8" font-family="Times New Roman,serif" font-size="14.00">2</text>
</g>
<!-- 13 -->
<g id="node14" class="node">
<title>13</title>
<ellipse fill="none" stroke="black" cx="456.7" cy="-105" rx="37.89" ry="18"/>
<text text-anchor="middle" x="456.7" y="-101.3" font-family="Times New Roman,serif" font-size="14.00">num : 2</text>
</g>
<!-- 12&#45;&gt;13 -->
<g id="edge22" class="edge">
<title>12&#45;&gt;13</title>
<path fill="none" stroke="black" d="M454.31,-173.87C453.71,-164.22 453.23,-151.94 453.7,-141 453.81,-138.44 453.96,-135.78 454.14,-133.12"/>
<polygon fill="black" stroke="black" points="457.64,-133.32 454.94,-123.07 450.66,-132.76 457.64,-133.32"/>
</g>
<!-- 14 -->
<g id="node15" class="node">
<title>14</title>
<ellipse fill="none" stroke="black" cx="549.7" cy="-105" rx="37.89" ry="18"/>
<text text-anchor="middle" x="549.7" y="-101.3" font-family="Times New Roman,serif" font-size="14.00">num : 1</text>
</g>
<!-- 12&#45;&gt;14 -->
<g id="edge24" class="edge">
<title>12&#45;&gt;14</title>
<path fill="none" stroke="black" d="M472.5,-175.8C487.11,-162.59 508.48,-143.27 525.03,-128.3"/>
<polygon fill="black" stroke="black" points="527.65,-130.65 532.72,-121.35 522.96,-125.46 527.65,-130.65"/>
</g>
<!-- 13&#45;&gt;12 -->
<g id="edge23" class="edge">
<title>13&#45;&gt;12</title>
<path fill="none" stroke="black" stroke-dasharray="1,5" d="M456.49,-123.18C456.36,-134.81 456.17,-150.42 456.02,-163.73"/>
<polygon fill="black" stroke="black" points="452.52,-163.76 455.9,-173.8 459.52,-163.84 452.52,-163.76"/>
<text text-anchor="middle" x="459.2" y="-144.8" font-family="Times New Roman,serif" font-size="14.00">1</text>
</g>
<!-- 14&#45;&gt;12 -->
<g id="edge25" class="edge">
<title>14&#45;&gt;12</title>
<path fill="none" stroke="black" stroke-dasharray="1,5" d="M541.28,-122.74C535.42,-133.21 526.85,-146.46 516.7,-156 509.3,-162.95 500.27,-169.08 491.46,-174.18"/>
<polygon fill="black" stroke="black" points="489.52,-171.25 482.42,-179.12 492.88,-177.39 489.52,-171.25"/>
<text text-anchor="middle" x="532.2" y="-144.8" font-family="Times New Roman,serif" font-size="14.00">1</text>
</g>
<!-- 15&#45;&gt;11 -->
<g id="edge28" class="edge">
<title>15&#45;&gt;11</title>
<path fill="none" stroke="black" stroke-dasharray="1,5" d="M538.95,-209.79C532.26,-220.27 522.63,-233.53 511.7,-243 503.33,-250.25 493.2,-256.59 483.46,-261.81"/>
<polygon fill="black" stroke="black" points="481.64,-258.82 474.31,-266.47 484.81,-265.05 481.64,-258.82"/>
<text text-anchor="middle" x="529.2" y="-231.8" font-family="Times New Roman,serif" font-size="14.00">1</text>
</g>
</g>
</svg>
