<?xml version="1.0" encoding="UTF-8" standalone="no"?>
<!DOCTYPE svg PUBLIC "-//W3C//DTD SVG 1.1//EN"
 "http://www.w3.org/Graphics/SVG/1.1/DTD/svg11.dtd">
<!-- Generated by graphviz version 2.50.0 (20211204.2007)
 -->
<!-- Title: g Pages: 1 -->
<svg width="594pt" height="404pt"
 viewBox="0.00 0.00 594.39 404.00" xmlns="http://www.w3.org/2000/svg" xmlns:xlink="http://www.w3.org/1999/xlink">
<g id="graph0" class="graph" transform="scale(1 1) rotate(0) translate(4 400)">
<title>g</title>
<polygon fill="white" stroke="transparent" points="-4,4 -4,-400 590.39,-400 590.39,4 -4,4"/>
<!-- 1 -->
<g id="node1" class="node">
<title>1</title>
<ellipse fill="none" stroke="black" cx="362.7" cy="-306" rx="37.89" ry="18"/>
<text text-anchor="middle" x="362.7" y="-302.3" font-family="Times New Roman,serif" font-size="14.00">num : 6</text>
</g>
<!-- 2 -->
<g id="node3" class="node">
<title>2</title>
<ellipse fill="none" stroke="black" cx="316.7" cy="-234" rx="37.89" ry="18"/>
<text text-anchor="middle" x="316.7" y="-230.3" font-family="Times New Roman,serif" font-size="14.00">num : 5</text>
</g>
<!-- 1&#45;&gt;2 -->
<g id="edge2" class="edge">
<title>1&#45;&gt;2</title>
<path fill="none" stroke="black" d="M351.8,-288.41C346.24,-279.95 339.36,-269.49 333.18,-260.08"/>
<polygon fill="black" stroke="black" points="335.94,-257.9 327.52,-251.47 330.09,-261.75 335.94,-257.9"/>
</g>
<!-- 11 -->
<g id="node12" class="node">
<title>11</title>
<ellipse fill="none" stroke="black" cx="455.7" cy="-234" rx="37.89" ry="18"/>
<text text-anchor="middle" x="455.7" y="-230.3" font-family="Times New Roman,serif" font-size="14.00">num : 4</text>
</g>
<!-- 1&#45;&gt;11 -->
<g id="edge11" class="edge">
<title>1&#45;&gt;11</title>
<path fill="none" stroke="black" d="M381.97,-290.5C395.31,-280.45 413.27,-266.93 428.12,-255.75"/>
<polygon fill="black" stroke="black" points="430.57,-258.3 436.45,-249.49 426.36,-252.7 430.57,-258.3"/>
</g>
<!-- Intital -->
<g id="node2" class="node">
<title>Intital</title>
<ellipse fill="none" stroke="black" cx="362.7" cy="-378" rx="30.59" ry="18"/>
<text text-anchor="middle" x="362.7" y="-374.3" font-family="Times New Roman,serif" font-size="14.00">Intital</text>
</g>
<!-- Intital&#45;&gt;1 -->
<g id="edge1" class="edge">
<title>Intital&#45;&gt;1</title>
<path fill="none" stroke="black" d="M362.7,-359.7C362.7,-351.98 362.7,-342.71 362.7,-334.11"/>
<polygon fill="black" stroke="black" points="366.2,-334.1 362.7,-324.1 359.2,-334.1 366.2,-334.1"/>
</g>
<!-- 3 -->
<g id="node4" class="node">
<title>3</title>
<ellipse fill="none" stroke="black" cx="176.7" cy="-162" rx="37.89" ry="18"/>
<text text-anchor="middle" x="176.7" y="-158.3" font-family="Times New Roman,serif" font-size="14.00">num : 4</text>
</g>
<!-- 2&#45;&gt;3 -->
<g id="edge3" class="edge">
<title>2&#45;&gt;3</title>
<path fill="none" stroke="black" d="M291.67,-220.49C269.21,-209.26 236.05,-192.67 211.1,-180.2"/>
<polygon fill="black" stroke="black" points="212.49,-176.98 201.98,-175.64 209.36,-183.24 212.49,-176.98"/>
</g>
<!-- 8 -->
<g id="node9" class="node">
<title>8</title>
<ellipse fill="none" stroke="black" cx="316.7" cy="-162" rx="37.89" ry="18"/>
<text text-anchor="middle" x="316.7" y="-158.3" font-family="Times New Roman,serif" font-size="14.00">num : 3</text>
</g>
<!-- 2&#45;&gt;8 -->
<g id="edge8" class="edge">
<title>2&#45;&gt;8</title>
<path fill="none" stroke="black" d="M316.7,-215.7C316.7,-207.98 316.7,-198.71 316.7,-190.11"/>
<polygon fill="black" stroke="black" points="320.2,-190.1 316.7,-180.1 313.2,-190.1 320.2,-190.1"/>
</g>
<!-- 4 -->
<g id="node5" class="node">
<title>4</title>
<ellipse fill="none" stroke="black" cx="83.7" cy="-90" rx="37.89" ry="18"/>
<text text-anchor="middle" x="83.7" y="-86.3" font-family="Times New Roman,serif" font-size="14.00">num : 3</text>
</g>
<!-- 3&#45;&gt;4 -->
<g id="edge4" class="edge">
<title>3&#45;&gt;4</title>
<path fill="none" stroke="black" d="M157.43,-146.5C144.08,-136.45 126.12,-122.93 111.27,-111.75"/>
<polygon fill="black" stroke="black" points="113.04,-108.7 102.94,-105.49 108.83,-114.3 113.04,-108.7"/>
</g>
<!-- 7 -->
<g id="node8" class="node">
<title>7</title>
<ellipse fill="none" stroke="black" cx="176.7" cy="-90" rx="37.89" ry="18"/>
<text text-anchor="middle" x="176.7" y="-86.3" font-family="Times New Roman,serif" font-size="14.00">num : 2</text>
</g>
<!-- 3&#45;&gt;7 -->
<g id="edge7" class="edge">
<title>3&#45;&gt;7</title>
<path fill="none" stroke="black" d="M176.7,-143.7C176.7,-135.98 176.7,-126.71 176.7,-118.11"/>
<polygon fill="black" stroke="black" points="180.2,-118.1 176.7,-108.1 173.2,-118.1 180.2,-118.1"/>
</g>
<!-- 5 -->
<g id="node6" class="node">
<title>5</title>
<ellipse fill="none" stroke="black" cx="37.7" cy="-18" rx="37.89" ry="18"/>
<text text-anchor="middle" x="37.7" y="-14.3" font-family="Times New Roman,serif" font-size="14.00">num : 2</text>
</g>
<!-- 4&#45;&gt;5 -->
<g id="edge5" class="edge">
<title>4&#45;&gt;5</title>
<path fill="none" stroke="black" d="M72.8,-72.41C67.24,-63.95 60.36,-53.49 54.18,-44.08"/>
<polygon fill="black" stroke="black" points="56.94,-41.9 48.52,-35.47 51.09,-45.75 56.94,-41.9"/>
</g>
<!-- 6 -->
<g id="node7" class="node">
<title>6</title>
<ellipse fill="none" stroke="black" cx="130.7" cy="-18" rx="37.89" ry="18"/>
<text text-anchor="middle" x="130.7" y="-14.3" font-family="Times New Roman,serif" font-size="14.00">num : 1</text>
</g>
<!-- 4&#45;&gt;6 -->
<g id="edge6" class="edge">
<title>4&#45;&gt;6</title>
<path fill="none" stroke="black" d="M94.6,-72.76C100.33,-64.23 107.48,-53.58 113.9,-44.02"/>
<polygon fill="black" stroke="black" points="116.86,-45.89 119.53,-35.63 111.05,-41.98 116.86,-45.89"/>
</g>
<!-- 9 -->
<g id="node10" class="node">
<title>9</title>
<ellipse fill="none" stroke="black" cx="269.7" cy="-90" rx="37.89" ry="18"/>
<text text-anchor="middle" x="269.7" y="-86.3" font-family="Times New Roman,serif" font-size="14.00">num : 2</text>
</g>
<!-- 8&#45;&gt;9 -->
<g id="edge9" class="edge">
<title>8&#45;&gt;9</title>
<path fill="none" stroke="black" d="M305.8,-144.76C300.07,-136.23 292.92,-125.58 286.5,-116.02"/>
<polygon fill="black" stroke="black" points="289.34,-113.98 280.86,-107.63 283.53,-117.89 289.34,-113.98"/>
</g>
<!-- 10 -->
<g id="node11" class="node">
<title>10</title>
<ellipse fill="none" stroke="black" cx="362.7" cy="-90" rx="37.89" ry="18"/>
<text text-anchor="middle" x="362.7" y="-86.3" font-family="Times New Roman,serif" font-size="14.00">num : 1</text>
</g>
<!-- 8&#45;&gt;10 -->
<g id="edge10" class="edge">
<title>8&#45;&gt;10</title>
<path fill="none" stroke="black" d="M327.6,-144.41C333.15,-135.95 340.03,-125.49 346.22,-116.08"/>
<polygon fill="black" stroke="black" points="349.31,-117.75 351.87,-107.47 343.46,-113.9 349.31,-117.75"/>
</g>
<!-- 12 -->
<g id="node13" class="node">
<title>12</title>
<ellipse fill="none" stroke="black" cx="455.7" cy="-162" rx="37.89" ry="18"/>
<text text-anchor="middle" x="455.7" y="-158.3" font-family="Times New Roman,serif" font-size="14.00">num : 3</text>
</g>
<!-- 11&#45;&gt;12 -->
<g id="edge12" class="edge">
<title>11&#45;&gt;12</title>
<path fill="none" stroke="black" d="M455.7,-215.7C455.7,-207.98 455.7,-198.71 455.7,-190.11"/>
<polygon fill="black" stroke="black" points="459.2,-190.1 455.7,-180.1 452.2,-190.1 459.2,-190.1"/>
</g>
<!-- 15 -->
<g id="node16" class="node">
<title>15</title>
<ellipse fill="none" stroke="black" cx="548.7" cy="-162" rx="37.89" ry="18"/>
<text text-anchor="middle" x="548.7" y="-158.3" font-family="Times New Roman,serif" font-size="14.00">num : 2</text>
</g>
<!-- 11&#45;&gt;15 -->
<g id="edge15" class="edge">
<title>11&#45;&gt;15</title>
<path fill="none" stroke="black" d="M474.97,-218.5C488.31,-208.45 506.27,-194.93 521.12,-183.75"/>
<polygon fill="black" stroke="black" points="523.57,-186.3 529.45,-177.49 519.36,-180.7 523.57,-186.3"/>
</g>
<!-- 13 -->
<g id="node14" class="node">
<title>13</title>
<ellipse fill="none" stroke="black" cx="455.7" cy="-90" rx="37.89" ry="18"/>
<text text-anchor="middle" x="455.7" y="-86.3" font-family="Times New Roman,serif" font-size="14.00">num : 2</text>
</g>
<!-- 12&#45;&gt;13 -->
<g id="edge13" class="edge">
<title>12&#45;&gt;13</title>
<path fill="none" stroke="black" d="M455.7,-143.7C455.7,-135.98 455.7,-126.71 455.7,-118.11"/>
<polygon fill="black" stroke="black" points="459.2,-118.1 455.7,-108.1 452.2,-118.1 459.2,-118.1"/>
</g>
<!-- 14 -->
<g id="node15" class="node">
<title>14</title>
<ellipse fill="none" stroke="black" cx="548.7" cy="-90" rx="37.89" ry="18"/>
<text text-anchor="middle" x="548.7" y="-86.3" font-family="Times New Roman,serif" font-size="14.00">num : 1</text>
</g>
<!-- 12&#45;&gt;14 -->
<g id="edge14" class="edge">
<title>12&#45;&gt;14</title>
<path fill="none" stroke="black" d="M474.97,-146.5C488.31,-136.45 506.27,-122.93 521.12,-111.75"/>
<polygon fill="black" stroke="black" points="523.57,-114.3 529.45,-105.49 519.36,-108.7 523.57,-114.3"/>
</g>
</g>
</svg>
